<svg data-noselect="" viewBox="0 0 86 122" width="44" height="54" preserveAspectRatio="none" version="1.1"
     xmlns="http://www.w3.org/2000/svg" style="background: rgba(255, 255, 255, 0);">
    <defs></defs>
    <g id="shape_CuAs4vl8OL" transform="translate(30,30) rotate(0,0,0) scale(1,1)" filter=""
       style="cursor: move; opacity: 1;">
        <g>
            <rect fill="rgba(0,0,0,0)" width="44" height="54" x="-10" y="-10"></rect>
            <svg xmlns="http://www.w3.org/2000/svg" xmlns:xlink="http://www.w3.org/1999/xlink" shape-rendering="auto"
                 text-rendering="auto" width="26" contentscripttype="text/ecmascript" color-rendering="auto"
                 color-interpolation="auto" xml:space="preserve" preserveAspectRatio="none" viewBox="0 0 26.282 62.766"
                 image-rendering="auto" zoomAndPan="magnify" version="1.1" contentstyletype="text/css" x="0px"
                 enable-background="new 0 0 26.282 62.766" height="62" y="0px" data-parent="shape_CuAs4vl8OL">
 <g fill="#5C6978" id="layer4">
  <path clip-rule="evenodd"
        d="M11.641,24.989l4.321,2.495l2.059,1.189   c1.439,0.831,2.262,2.257,2.262,3.918v16.575c0,1.661-0.823,3.088-2.262,3.918l-2.059,1.188l-4.321,2.494L8.343,41.372   L11.641,24.989z"
        fill-rule="evenodd"></path>
 </g>
                <g fill="#243446" id="layer3">
  <path clip-rule="evenodd"
        d="M11.641,56.766L7.32,54.272l-2.059-1.188   C3.823,52.253,3,50.827,3,49.166V32.591c0-1.661,0.823-3.088,2.262-3.918l2.059-1.189l4.321-2.495V56.766z"
        fill-rule="evenodd"></path>
 </g>
                <g fill="#A92512" id="layer2">
  <path clip-rule="evenodd"
        d="M11.641,22.956L7.32,20.461l-2.059-1.188   C3.823,18.443,3,17.016,3,15.355v-2.377v-2.377C3,8.94,3.823,7.514,5.262,6.683L7.32,5.495L11.641,3V22.956z"
        fill-rule="evenodd"></path>
 </g>
                <g fill="#E72D18" id="layer1_1_">
  <path clip-rule="evenodd"
        d="M11.641,3l4.321,2.495l2.059,1.189   c1.439,0.831,2.262,2.257,2.262,3.918v2.377v2.377c0,1.661-0.823,3.088-2.262,3.918l-2.059,1.188l-4.321,2.494L9.928,12.893   L11.641,3z"
        fill-rule="evenodd"></path>
 </g>
                <!--Copyright (c) Logomaker.com.cn  @2017-01-03-->
</svg>
        </g> <!---->
    </g>  <!---->
</svg>